<mxfile host="app.diagrams.net" modified="2021-09-22T09:31:28.008Z" agent="5.0 (Windows NT 10.0; Win64; x64) AppleWebKit/537.36 (KHTML, like Gecko) Chrome/93.0.4577.82 Safari/537.36 Edg/93.0.961.52" etag="FMCMrvoXTzlfz68fcKIB" version="15.2.9" type="github">
  <diagram id="qOntW_6kC8Lvr-yqOwLw" name="Page-1">
    <mxGraphModel dx="1221" dy="644" grid="1" gridSize="10" guides="1" tooltips="1" connect="1" arrows="1" fold="1" page="1" pageScale="1" pageWidth="827" pageHeight="1169" math="0" shadow="0">
      <root>
        <mxCell id="0" />
        <mxCell id="1" parent="0" />
        <mxCell id="bMksvAUM96quyOhIT9Ui-4" value="" style="edgeStyle=orthogonalEdgeStyle;rounded=0;orthogonalLoop=1;jettySize=auto;html=1;" edge="1" parent="1" source="bMksvAUM96quyOhIT9Ui-2" target="bMksvAUM96quyOhIT9Ui-3">
          <mxGeometry relative="1" as="geometry" />
        </mxCell>
        <mxCell id="bMksvAUM96quyOhIT9Ui-2" value="Start" style="strokeWidth=2;html=1;shape=mxgraph.flowchart.terminator;whiteSpace=wrap;" vertex="1" parent="1">
          <mxGeometry x="364" y="40" width="100" height="60" as="geometry" />
        </mxCell>
        <mxCell id="bMksvAUM96quyOhIT9Ui-6" value="" style="edgeStyle=orthogonalEdgeStyle;rounded=0;orthogonalLoop=1;jettySize=auto;html=1;" edge="1" parent="1" source="bMksvAUM96quyOhIT9Ui-3" target="bMksvAUM96quyOhIT9Ui-5">
          <mxGeometry relative="1" as="geometry" />
        </mxCell>
        <mxCell id="bMksvAUM96quyOhIT9Ui-14" value="" style="edgeStyle=orthogonalEdgeStyle;rounded=0;orthogonalLoop=1;jettySize=auto;html=1;" edge="1" parent="1" source="bMksvAUM96quyOhIT9Ui-3" target="bMksvAUM96quyOhIT9Ui-13">
          <mxGeometry relative="1" as="geometry" />
        </mxCell>
        <mxCell id="bMksvAUM96quyOhIT9Ui-25" style="edgeStyle=orthogonalEdgeStyle;rounded=0;orthogonalLoop=1;jettySize=auto;html=1;entryX=1;entryY=0.5;entryDx=0;entryDy=0;" edge="1" parent="1" source="bMksvAUM96quyOhIT9Ui-3" target="bMksvAUM96quyOhIT9Ui-17">
          <mxGeometry relative="1" as="geometry" />
        </mxCell>
        <mxCell id="bMksvAUM96quyOhIT9Ui-3" value="Face Detection" style="whiteSpace=wrap;html=1;strokeWidth=2;" vertex="1" parent="1">
          <mxGeometry x="354" y="180" width="120" height="60" as="geometry" />
        </mxCell>
        <mxCell id="bMksvAUM96quyOhIT9Ui-8" value="" style="edgeStyle=orthogonalEdgeStyle;rounded=0;orthogonalLoop=1;jettySize=auto;html=1;" edge="1" parent="1" source="bMksvAUM96quyOhIT9Ui-5" target="bMksvAUM96quyOhIT9Ui-7">
          <mxGeometry relative="1" as="geometry" />
        </mxCell>
        <mxCell id="bMksvAUM96quyOhIT9Ui-12" value="" style="edgeStyle=orthogonalEdgeStyle;rounded=0;orthogonalLoop=1;jettySize=auto;html=1;" edge="1" parent="1" source="bMksvAUM96quyOhIT9Ui-5" target="bMksvAUM96quyOhIT9Ui-11">
          <mxGeometry relative="1" as="geometry" />
        </mxCell>
        <mxCell id="bMksvAUM96quyOhIT9Ui-26" style="edgeStyle=orthogonalEdgeStyle;rounded=0;orthogonalLoop=1;jettySize=auto;html=1;entryX=1;entryY=0.5;entryDx=0;entryDy=0;" edge="1" parent="1" source="bMksvAUM96quyOhIT9Ui-5" target="bMksvAUM96quyOhIT9Ui-17">
          <mxGeometry relative="1" as="geometry" />
        </mxCell>
        <mxCell id="bMksvAUM96quyOhIT9Ui-5" value="Filter" style="whiteSpace=wrap;html=1;strokeWidth=2;" vertex="1" parent="1">
          <mxGeometry x="354" y="320" width="120" height="60" as="geometry" />
        </mxCell>
        <mxCell id="bMksvAUM96quyOhIT9Ui-10" value="" style="edgeStyle=orthogonalEdgeStyle;rounded=0;orthogonalLoop=1;jettySize=auto;html=1;" edge="1" parent="1" source="bMksvAUM96quyOhIT9Ui-7" target="bMksvAUM96quyOhIT9Ui-9">
          <mxGeometry relative="1" as="geometry" />
        </mxCell>
        <mxCell id="bMksvAUM96quyOhIT9Ui-20" value="" style="edgeStyle=orthogonalEdgeStyle;rounded=0;orthogonalLoop=1;jettySize=auto;html=1;" edge="1" parent="1" source="bMksvAUM96quyOhIT9Ui-7" target="bMksvAUM96quyOhIT9Ui-19">
          <mxGeometry relative="1" as="geometry" />
        </mxCell>
        <mxCell id="bMksvAUM96quyOhIT9Ui-24" value="" style="edgeStyle=orthogonalEdgeStyle;rounded=0;orthogonalLoop=1;jettySize=auto;html=1;" edge="1" parent="1" source="bMksvAUM96quyOhIT9Ui-7" target="bMksvAUM96quyOhIT9Ui-23">
          <mxGeometry relative="1" as="geometry" />
        </mxCell>
        <mxCell id="bMksvAUM96quyOhIT9Ui-7" value="Output" style="whiteSpace=wrap;html=1;strokeWidth=2;" vertex="1" parent="1">
          <mxGeometry x="354" y="460" width="120" height="60" as="geometry" />
        </mxCell>
        <mxCell id="bMksvAUM96quyOhIT9Ui-9" value="End" style="ellipse;whiteSpace=wrap;html=1;strokeWidth=2;" vertex="1" parent="1">
          <mxGeometry x="354" y="600" width="120" height="60" as="geometry" />
        </mxCell>
        <mxCell id="bMksvAUM96quyOhIT9Ui-11" value="Simple filter&lt;br&gt;&amp;nbsp;.png" style="shape=parallelogram;perimeter=parallelogramPerimeter;whiteSpace=wrap;html=1;fixedSize=1;strokeWidth=2;" vertex="1" parent="1">
          <mxGeometry x="554" y="320" width="120" height="60" as="geometry" />
        </mxCell>
        <mxCell id="bMksvAUM96quyOhIT9Ui-13" value="Face and Eyes&lt;br&gt;using Haarcascade" style="shape=parallelogram;perimeter=parallelogramPerimeter;whiteSpace=wrap;html=1;fixedSize=1;strokeWidth=2;" vertex="1" parent="1">
          <mxGeometry x="554" y="180" width="136" height="60" as="geometry" />
        </mxCell>
        <mxCell id="bMksvAUM96quyOhIT9Ui-17" value="Processing" style="shape=process;whiteSpace=wrap;html=1;backgroundOutline=1;strokeWidth=2;" vertex="1" parent="1">
          <mxGeometry x="154" y="240" width="120" height="60" as="geometry" />
        </mxCell>
        <mxCell id="bMksvAUM96quyOhIT9Ui-19" value="Post-Processing" style="shape=process;whiteSpace=wrap;html=1;backgroundOutline=1;strokeWidth=2;" vertex="1" parent="1">
          <mxGeometry x="154" y="460" width="120" height="60" as="geometry" />
        </mxCell>
        <mxCell id="bMksvAUM96quyOhIT9Ui-23" value="Face with rectangle and filter image" style="strokeWidth=2;html=1;shape=mxgraph.flowchart.display;whiteSpace=wrap;" vertex="1" parent="1">
          <mxGeometry x="554" y="460" width="116" height="60" as="geometry" />
        </mxCell>
      </root>
    </mxGraphModel>
  </diagram>
</mxfile>
